{
    "asset" : {
        "generator" : "Khronos glTF Blender I/O v1.7.33",
        "version" : "2.0"
    },
    "scene" : 0,
    "scenes" : [
        {
            "name" : "Scene",
            "nodes" : [
                0
            ]
        }
    ],
    "nodes" : [
        {
            "mesh" : 0,
            "name" : "cow",
            "rotation" : [
                0.7071068286895752,
                0,
                0,
                0.7071067094802856
            ],
            "scale" : [
                0.0005000000237487257,
                0.0005000000237487257,
                0.0005000000237487257
            ]
        }
    ],
    "materials" : [
        {
            "doubleSided" : true,
            "name" : "material_009C21CE",
            "pbrMetallicRoughness" : {
                "baseColorTexture" : {
                    "index" : 0
                },
                "metallicFactor" : 0,
                "roughnessFactor" : 0.780862033367157
            }
        }
    ],
    "meshes" : [
        {
            "name" : "cow",
            "primitives" : [
                {
                    "attributes" : {
                        "POSITION" : 0,
                        "NORMAL" : 1,
                        "TEXCOORD_0" : 2
                    },
                    "indices" : 3,
                    "material" : 0
                }
            ]
        }
    ],
    "textures" : [
        {
            "sampler" : 0,
            "source" : 0
        }
    ],
    "images" : [
        {
            "bufferView" : 4,
            "mimeType" : "image/png",
            "name" : "cow_00_0"
        }
    ],
    "accessors" : [
        {
            "bufferView" : 0,
            "componentType" : 5126,
            "count" : 2329,
            "max" : [
                996.0827026367188,
                2251.024658203125,
                976.1417846679688
            ],
            "min" : [
                -996.0827026367188,
                -2362.376953125,
                -1585.543212890625
            ],
            "type" : "VEC3"
        },
        {
            "bufferView" : 1,
            "componentType" : 5126,
            "count" : 2329,
            "type" : "VEC3"
        },
        {
            "bufferView" : 2,
            "componentType" : 5126,
            "count" : 2329,
            "type" : "VEC2"
        },
        {
            "bufferView" : 3,
            "componentType" : 5123,
            "count" : 2400,
            "type" : "SCALAR"
        }
    ],
    "bufferViews" : [
        {
            "buffer" : 0,
            "byteLength" : 27948,
            "byteOffset" : 0
        },
        {
            "buffer" : 0,
            "byteLength" : 27948,
            "byteOffset" : 27948
        },
        {
            "buffer" : 0,
            "byteLength" : 18632,
            "byteOffset" : 55896
        },
        {
            "buffer" : 0,
            "byteLength" : 4800,
            "byteOffset" : 74528
        },
        {
            "buffer" : 0,
            "byteLength" : 16711,
            "byteOffset" : 79328
        }
    ],
    "samplers" : [
        {
            "magFilter" : 9729,
            "minFilter" : 9987
        }
    ],
    "buffers" : [
        {
            "byteLength" : 96040,
            "uri" : "data:application/octet-stream;base64,"
        }
    ]
}
