<?xml version="1.0" encoding="utf-8"?>
<!-- Generator: Adobe Illustrator 27.5.0, SVG Export Plug-In . SVG Version: 6.00 Build 0)  -->
<svg version="1.1" id="Layer_1" xmlns="http://www.w3.org/2000/svg" xmlns:xlink="http://www.w3.org/1999/xlink" x="0px" y="0px"
	 viewBox="0 0 800 800" style="enable-background:new 0 0 800 800;" xml:space="preserve">
<style type="text/css">
	.st0{fill-rule:evenodd;clip-rule:evenodd;fill:#ff9900;}
	.st1{display:none;fill-rule:evenodd;clip-rule:evenodd;fill:#00000000;}
	.st2{fill-rule:evenodd;clip-rule:evenodd;fill:#ffffffff;}
</style>
<g id="_x37_935ec95c421cee6d86eb22ecd1149e3">
	<path class="st0" d="M709.8,652.2c-98,41.6-204.5,61.7-301.4,61.7c-143.6,0-282.7-39.4-395.1-104.8c-9.8-5.7-17.1,4.4-9,11.8
		c104.2,94.1,241.9,150.7,394.9,150.7c109.1,0,235.9-34.3,323.3-98.8C736.9,661.9,724.6,645.9,709.8,652.2z M735.9,730.7
		c-3.2,8,3.7,11.2,10.9,5.1c46.9-39.2,59-121.4,49.4-133.3c-9.5-11.8-91.5-21.9-141.6,13.2c-7.7,5.4-6.3,12.9,2.2,11.9
		c28.2-3.4,90.9-10.9,102.1,3.4C770,645.4,746.4,704.3,735.9,730.7z"/>
</g>
<g>
	<path class="st1" d="M439,477.5c-16.8,29.7-43.4,48-73,48c-40.5,0-64.2-30.8-64.2-76.5c0-89.9,80.6-106.2,157-106.2v22.8
		C458.7,406.7,459.7,441,439,477.5z"/>
	<path class="st2" d="M646.7,525c-19.3-26.7-39.8-48.4-39.8-97.8V262.8c0-69.7,4.9-133.7-46.4-181.6c-40.5-38.8-107.6-52.5-159-52.5
		c-100.4,0-212.5,37.5-236,161.6c-2.5,13.2,7.1,20.1,15.7,22.1l102.3,11.1c9.6-0.5,16.5-9.9,18.3-19.4c8.8-42.7,44.6-63.4,84.8-63.4
		c21.7,0,46.4,8,59.2,27.4c14.8,21.7,12.8,51.4,12.8,76.5v13.7c-61.2,6.9-141.2,11.4-198.4,36.6c-66.1,28.6-112.5,86.8-112.5,172.5
		c0,109.7,69.1,164.5,158,164.5c75,0,116.1-17.7,174-76.7c19.1,27.7,25.4,41.2,60.5,70.3c7.9,4.2,18,3.8,25-2.4l0.2,0.2
		c21.1-18.8,59.4-52,81-70.1C654.9,546,653.4,534.6,646.7,525z M439,477.5c-16.8,29.7-43.4,48-73,48c-40.5,0-64.2-30.8-64.2-76.5
		c0-89.9,80.6-106.2,157-106.2v22.8C458.7,406.7,459.7,441,439,477.5z"/>
</g>
</svg>
